<?xml version="1.0" standalone="no"?>
<!DOCTYPE svg PUBLIC "-//W3C//DTD SVG 20010904//EN"
 "http://www.w3.org/TR/2001/REC-SVG-20010904/DTD/svg10.dtd">
<svg version="1.0" xmlns="http://www.w3.org/2000/svg"
 width="502.000000pt" height="502.000000pt" viewBox="0 0 502.000000 502.000000"
 preserveAspectRatio="xMidYMid meet">
<metadata>
Created by potrace 1.14, written by Peter Selinger 2001-2017
</metadata>
<g transform="translate(0.000000,502.000000) scale(0.100000,-0.100000)"
fill="#000000" stroke="none">
<path d="M2328 4956 c-3 -3 -96 -15 -173 -22 -16 -1 -30 -3 -30 -4 0 -1 -11
-3 -25 -5 -59 -8 -182 -36 -270 -63 -471 -142 -889 -422 -1199 -802 -11 -14
-25 -31 -31 -37 -31 -36 -147 -207 -182 -266 -39 -68 -111 -208 -141 -277 -66
-152 -141 -394 -151 -486 -2 -17 -5 -35 -8 -40 -8 -13 -15 -58 -34 -229 -9
-69 -9 -389 -1 -450 4 -27 9 -72 12 -100 5 -50 14 -102 22 -140 3 -11 9 -38
13 -60 5 -22 11 -49 14 -60 11 -50 48 -182 56 -200 5 -11 22 -56 39 -101 122
-326 314 -618 579 -880 107 -105 324 -281 379 -307 13 -6 23 -14 23 -19 0 -4
4 -8 10 -8 5 0 33 -14 62 -31 174 -103 500 -238 640 -265 13 -2 33 -6 46 -9
54 -12 102 -21 167 -30 22 -4 51 -8 64 -10 140 -23 442 -23 626 0 32 4 127 18
135 20 28 7 70 15 90 19 66 13 84 18 102 27 10 5 18 7 18 5 0 -7 175 54 270
94 41 17 83 34 93 37 9 3 17 10 17 16 0 6 3 8 6 4 6 -6 88 35 203 102 75 44
242 158 251 171 3 4 32 29 65 55 136 110 364 360 451 495 16 25 31 47 34 50 6
6 12 16 84 142 31 53 56 99 56 102 0 3 17 42 39 88 49 106 71 166 116 311 37
118 39 127 49 188 6 36 12 67 21 109 3 14 7 43 10 65 2 22 7 69 11 105 9 75 9
403 1 470 -3 25 -8 70 -11 100 -4 30 -9 66 -12 80 -7 32 -11 57 -19 100 -16
94 -81 304 -134 435 -70 174 -223 432 -345 585 -116 144 -287 317 -391 395
-22 16 -42 33 -45 36 -14 16 -206 142 -285 186 -120 67 -200 104 -321 152
-104 41 -283 96 -344 106 -19 3 -46 8 -60 10 -65 13 -78 16 -120 21 -25 3 -58
8 -75 11 -35 5 -461 13 -467 9z m382 -406 c-21 -14 -30 -12 -37 6 -9 23 19 37
37 18 13 -13 13 -16 0 -24z m-760 -40 c0 -22 -24 -32 -39 -17 -14 14 -14 30 1
45 15 15 38 -2 38 -28z m590 -55 c7 -9 5 -19 -8 -35 l-19 -23 -21 23 c-16 17
-19 27 -12 41 11 19 42 16 60 -6z m700 -4 c19 -36 -8 -63 -52 -53 -18 3 -26
51 -11 65 13 14 53 6 63 -12z m-1516 3 c24 -9 19 -43 -6 -53 -31 -11 -53 11
-38 39 11 21 19 24 44 14z m598 -3 c13 -2 19 -41 8 -61 -13 -25 -65 -28 -74
-4 -16 42 5 76 43 69 9 -2 19 -4 23 -4z m594 -27 c16 -24 16 -26 -2 -44 -40
-38 -88 15 -48 54 21 22 31 20 50 -10z m484 -35 c0 -22 -13 -31 -34 -23 -15 6
-22 35 -10 46 11 12 44 -5 44 -23z m-1346 5 c29 -11 12 -64 -21 -64 -21 0 -36
39 -22 56 13 16 20 17 43 8z m1206 -174 c25 -47 -47 -93 -81 -52 -20 26 -15
57 14 77 23 16 50 6 67 -25z m-1886 -68 c6 -40 0 -35 59 -57 61 -23 59 -45 -7
-66 -27 -8 -51 -22 -52 -30 -12 -61 -16 -75 -24 -83 -14 -14 -35 9 -49 54 -8
26 -20 44 -34 50 -12 4 -37 14 -54 20 -55 21 -36 46 50 66 22 5 28 13 33 46 4
22 14 46 22 54 13 14 17 14 33 -3 9 -10 20 -33 23 -51z m770 42 c22 -21 4 -54
-29 -54 -14 0 -25 3 -26 8 0 4 -2 15 -4 24 -2 10 4 22 13 28 23 13 28 12 46
-6z m-274 -39 c48 -51 16 -129 -52 -127 -22 1 -40 9 -55 27 -30 34 -29 56 3
94 32 39 71 41 104 6z m548 13 c7 -7 12 -22 12 -34 0 -39 11 -54 51 -64 51
-14 75 -38 57 -56 -7 -7 -29 -16 -48 -19 -47 -8 -56 -19 -59 -72 -1 -6 -8 -19
-17 -28 -21 -20 -33 -10 -54 48 -14 38 -20 43 -60 53 -34 8 -46 16 -48 32 -3
18 4 24 43 34 48 13 63 29 71 76 8 44 27 55 52 30z m989 -142 c11 -13 27 -26
34 -29 10 -3 2 -16 -24 -40 l-39 -36 -36 36 c-26 25 -33 37 -23 41 7 2 23 15
34 28 11 13 23 24 27 24 4 0 16 -11 27 -24z m444 -4 c6 -58 36 -109 63 -104
22 4 78 -27 73 -41 -4 -13 -32 -28 -84 -47 -24 -9 -33 -20 -38 -43 -4 -18 -13
-42 -21 -55 -22 -33 -49 -14 -65 47 -12 48 -14 50 -53 56 -50 8 -87 30 -80 48
5 13 59 37 85 37 26 0 41 17 45 51 2 18 11 43 19 56 13 19 19 21 35 13 11 -6
20 -14 21 -18z m-2241 -43 c0 -11 -4 -17 -10 -14 -5 3 -10 13 -10 21 0 8 5 14
10 14 6 0 10 -9 10 -21z m-745 -49 c3 -5 1 -10 -4 -10 -6 0 -11 5 -11 10 0 6
2 10 4 10 3 0 8 -4 11 -10z m217 -70 c25 -20 22 -31 -13 -59 l-31 -24 -30 30
-30 30 29 29 c29 31 31 31 75 -6z m1776 8 c17 -17 15 -39 -5 -54 -15 -10 -21
-10 -35 3 -22 20 -22 27 -2 47 19 19 26 20 42 4z m-184 -49 c-3 -5 -10 -7 -15
-3 -5 3 -7 10 -3 15 3 5 10 7 15 3 5 -3 7 -10 3 -15z m541 -19 c3 -5 1 -10 -4
-10 -6 0 -11 5 -11 10 0 6 2 10 4 10 3 0 8 -4 11 -10z m275 -15 c0 -8 -4 -15
-10 -15 -5 0 -10 7 -10 15 0 8 5 15 10 15 6 0 10 -7 10 -15z m685 -16 c0 -15
-7 -25 -19 -27 -25 -5 -39 12 -31 37 9 30 50 22 50 -10z m-845 -130 c95 -1
248 -51 337 -108 130 -84 156 -137 141 -280 -3 -30 -92 -109 -136 -121 -63
-16 -104 -2 -192 69 -64 51 -117 77 -180 86 -145 23 -249 -14 -319 -114 -34
-49 -36 -151 -2 -204 40 -65 72 -88 191 -140 43 -19 177 -67 205 -74 11 -2 29
-8 40 -13 11 -5 52 -21 90 -35 152 -58 235 -119 305 -224 80 -118 110 -294 73
-434 -16 -63 -74 -187 -100 -215 -107 -115 -160 -155 -259 -194 -137 -55 -389
-64 -555 -21 -105 27 -231 87 -294 140 -24 20 -56 58 -70 85 -70 128 18 292
155 291 57 -1 91 -18 150 -73 61 -58 114 -87 190 -104 122 -28 262 -5 342 57
26 20 68 107 68 140 0 72 -44 147 -112 189 -23 15 -165 73 -238 98 -175 59
-317 123 -365 165 -104 90 -136 128 -179 214 -56 110 -70 298 -31 417 48 143
156 268 290 337 50 25 157 58 210 64 28 3 51 6 53 8 1 1 42 0 90 -2 48 -2 94
-4 102 -4z m-2583 -10 c15 -15 5 -39 -17 -39 -22 0 -32 24 -17 39 6 6 14 11
17 11 3 0 11 -5 17 -11z m1922 -8 c8 -14 7 -22 -4 -31 -19 -16 -45 -6 -45 18
0 36 33 45 49 13z m-1090 0 c7 -5 28 -5 47 -1 23 5 32 4 27 -3 -4 -6 -1 -7 7
-2 7 4 40 7 74 6 34 -1 158 -3 277 -5 214 -2 215 -2 261 -29 134 -78 141 -238
14 -316 -31 -20 -49 -21 -394 -21 -199 -1 -363 -4 -364 -8 -5 -21 -4 -432 1
-433 3 0 166 -2 361 -2 l355 -2 47 -30 c150 -95 106 -315 -67 -339 -22 -3
-189 -5 -371 -6 l-331 0 2 -222 1 -223 164 -2 c91 -1 167 -2 170 -3 3 -2 9 -2
13 -1 24 4 242 0 387 -8 27 -1 91 -53 109 -88 17 -33 13 -111 -6 -146 -26 -46
-43 -62 -98 -94 l-50 -29 -420 1 -420 1 -54 28 c-105 54 -166 144 -177 262 -2
27 -4 372 -4 767 l0 718 29 63 c31 66 82 118 141 144 21 9 74 16 134 18 54 2
101 6 104 9 7 7 15 6 31 -4z m2656 -59 c34 -34 40 -64 20 -105 -12 -25 -28
-40 -57 -52 -37 -14 -42 -14 -65 0 -45 30 -63 55 -63 86 0 93 100 136 165 71z
m-3391 -54 c21 -30 20 -35 -9 -54 -24 -16 -27 -16 -45 1 -25 23 -25 30 0 55
26 26 35 25 54 -2z m179 16 c9 -10 -4 -34 -19 -34 -8 0 -14 6 -14 13 0 22 19
35 33 21z m-65 -282 c4 -28 -22 -71 -42 -68 -29 4 -47 29 -41 55 8 32 23 42
55 39 18 -2 26 -10 28 -26z m-263 -55 c20 -29 19 -59 -5 -84 -27 -30 -55 -36
-87 -21 -39 19 -52 50 -39 93 18 58 94 64 131 12z m3735 -22 c10 -12 10 -18 0
-30 -7 -8 -18 -15 -25 -15 -19 0 -36 25 -29 44 8 20 38 21 54 1z m-1970 -145
c0 -5 -5 -10 -11 -10 -5 0 -7 5 -4 10 3 6 8 10 11 10 2 0 4 -4 4 -10z m-1639
-25 c0 -5 -9 -11 -21 -13 -20 -3 -27 8 -13 22 10 9 34 3 34 -9z m-343 -52 c5
-17 -26 -29 -40 -15 -6 6 -7 15 -3 22 9 14 37 9 43 -7z m108 -52 c-9 -13 -36
-15 -36 -2 0 5 3 17 6 26 6 15 8 15 22 2 8 -8 11 -20 8 -26z m414 20 c0 -14
-18 -23 -30 -16 -6 4 -8 11 -5 16 8 12 35 12 35 0z m-232 -66 c15 -48 31 -61
82 -70 21 -4 41 -13 44 -20 6 -17 -30 -45 -57 -45 -32 0 -54 -18 -61 -51 -14
-73 -57 -79 -71 -9 -6 33 -20 51 -43 55 -56 12 -77 21 -80 36 -3 16 36 39 67
39 23 0 54 34 58 63 9 62 41 63 61 2z m3230 -2 c6 -19 -25 -16 -32 3 -4 11 -1
14 11 12 9 -2 18 -9 21 -15z m560 -184 c-2 -6 -8 -10 -13 -10 -5 0 -11 4 -13
10 -2 6 4 11 13 11 9 0 15 -5 13 -11z m-2004 -196 c4 -9 3 -20 -1 -24 -13 -13
-37 7 -30 25 8 21 23 20 31 -1z m1801 -63 c8 -48 23 -68 55 -74 96 -16 105
-59 19 -88 -55 -18 -57 -21 -69 -66 -22 -87 -50 -95 -81 -24 -12 26 -25 54
-29 62 -3 8 -29 20 -56 27 -44 11 -74 33 -74 55 0 12 31 25 73 32 48 8 64 23
73 71 4 21 15 46 26 57 18 18 21 19 38 3 10 -9 21 -34 25 -55z m-3675 -102
c19 -53 26 -63 46 -66 31 -5 64 -24 64 -37 0 -7 -20 -18 -44 -25 -37 -10 -46
-18 -59 -52 -19 -47 -35 -46 -58 3 -13 25 -28 38 -60 49 -23 8 -44 20 -46 27
-2 6 17 19 43 29 39 15 49 25 65 61 10 24 22 43 27 43 5 0 15 -15 22 -32z
m1865 -107 c14 -36 -47 -54 -69 -19 -16 26 19 61 45 45 10 -6 21 -18 24 -26z
m-1525 -29 c0 -4 -9 -8 -20 -9 -11 -1 -18 2 -15 8 7 11 35 12 35 1z m3458
-127 c11 -23 9 -27 -14 -37 -22 -10 -28 -9 -39 5 -18 25 -7 57 20 57 14 0 26
-9 33 -25z m-344 -41 c9 -25 7 -34 -8 -34 -16 0 -25 19 -18 38 6 17 19 15 26
-4z m-3559 -38 c17 -12 18 -18 7 -40 -13 -29 -27 -33 -48 -12 -17 18 -18 38
-2 54 15 15 20 15 43 -2z m3696 -133 c14 -16 24 -34 23 -40 -1 -7 -2 -19 -3
-25 -6 -48 -74 -70 -116 -36 -31 24 -33 65 -4 102 27 35 68 34 100 -1z m-1647
-205 c11 -16 13 -25 4 -35 -27 -32 -77 2 -57 39 13 24 35 23 53 -4z m-1438
-101 c7 -4 15 -19 18 -34 17 -71 26 -81 82 -94 93 -21 97 -61 9 -79 -54 -11
-77 -28 -82 -60 -7 -46 -23 -70 -47 -70 -27 0 -43 20 -48 62 -5 36 -24 56 -61
63 -109 22 -117 61 -17 84 49 11 80 40 80 75 0 45 35 73 66 53z m2909 -39 l31
-33 -33 -31 -34 -31 -32 31 -32 31 30 31 c16 17 32 32 34 33 3 0 19 -14 36
-31z m-1985 -78 c0 -11 5 -20 10 -20 6 0 10 -4 10 -8 0 -7 -38 -9 -77 -4 -14
2 -6 33 11 44 22 15 46 8 46 -12z m810 -25 c10 -12 9 -16 -5 -21 -19 -8 -40 9
-31 25 10 15 21 14 36 -4z m667 -60 c35 -23 53 -71 41 -107 -21 -61 -99 -88
-144 -50 -62 52 -57 117 12 163 30 19 54 18 91 -6z m-1388 -116 c21 -19 27
-61 15 -94 -7 -18 -52 -42 -74 -40 -8 1 -23 3 -32 3 -36 4 -56 82 -32 120 28
43 83 48 123 11z m959 -98 c6 -42 -52 -58 -67 -18 -11 29 5 49 38 45 19 -2 27
-10 29 -27z m-262 -32 c8 -14 -11 -33 -25 -25 -11 7 -4 36 9 36 5 0 12 -5 16
-11z m-1006 -19 c0 -5 -4 -10 -10 -10 -5 0 -10 5 -10 10 0 6 5 10 10 10 6 0
10 -4 10 -10z m-593 -46 c2 -6 -8 -14 -22 -16 -24 -5 -34 9 -18 26 10 10 36 3
40 -10z m1383 -48 c0 -11 -19 -15 -25 -6 -3 5 1 10 9 10 9 0 16 -2 16 -4z
m-730 -73 c50 -29 54 -117 6 -149 -34 -21 -78 -21 -109 2 -49 36 -50 94 -2
140 38 35 55 37 105 7z m962 -33 c36 -28 41 -65 12 -93 -69 -66 -167 21 -99
88 29 30 54 32 87 5z m-1249 -121 c14 -22 2 -49 -21 -49 -28 0 -41 21 -31 48
10 26 36 26 52 1z m459 -171 c-10 -10 -15 -10 -22 2 -6 9 -5 17 3 22 18 11 33
-10 19 -24z"/>
</g>
</svg>
