<?xml version="1.0" standalone="no"?>
<!DOCTYPE svg PUBLIC "-//W3C//DTD SVG 20010904//EN"
 "http://www.w3.org/TR/2001/REC-SVG-20010904/DTD/svg10.dtd">
<svg version="1.0" xmlns="http://www.w3.org/2000/svg"
 width="503.000000pt" height="503.000000pt" viewBox="0 0 503.000000 503.000000"
 preserveAspectRatio="xMidYMid meet">
<metadata>
Created by potrace 1.14, written by Peter Selinger 2001-2017
</metadata>
<g transform="translate(0.000000,503.000000) scale(0.100000,-0.100000)"
fill="#000000" stroke="none">
<path d="M2309 4965 c-2 -2 -29 -6 -59 -9 -195 -21 -435 -77 -605 -143 -63
-25 -89 -34 -92 -34 -2 0 -71 -34 -155 -76 -141 -71 -203 -106 -235 -133 -7
-5 -15 -10 -18 -10 -11 0 -231 -168 -290 -221 -236 -214 -415 -448 -553 -725
-83 -165 -95 -193 -140 -326 -38 -108 -83 -300 -97 -408 -3 -25 -8 -61 -11
-80 -14 -97 -13 -440 2 -560 23 -184 71 -395 114 -500 10 -25 33 -83 50 -130
43 -112 182 -380 202 -388 4 -2 8 -9 8 -16 0 -7 8 -21 18 -32 9 -10 29 -37 44
-59 15 -22 38 -52 50 -67 13 -15 31 -37 41 -50 79 -102 239 -261 367 -366 289
-235 695 -426 1066 -500 82 -17 181 -34 219 -38 80 -9 475 -10 550 -2 154 17
318 50 450 90 39 12 72 22 75 23 3 1 13 5 22 9 9 4 22 9 30 10 39 8 277 113
348 154 64 37 252 154 270 169 8 7 42 33 75 58 291 222 565 562 711 883 24 53
49 105 55 116 6 10 12 26 14 35 3 9 21 63 40 121 31 90 52 168 82 315 3 17 7
41 8 55 1 14 3 27 4 30 4 7 8 34 20 120 11 73 9 490 -2 520 -3 8 -8 41 -11 73
-3 32 -10 66 -16 76 -5 10 -7 21 -4 24 13 13 -94 397 -117 422 -5 5 -9 16 -9
24 0 24 -146 314 -195 386 -25 37 -45 71 -45 75 0 5 -4 10 -8 12 -4 2 -41 47
-81 101 -71 94 -235 277 -276 307 -11 8 -41 34 -66 57 -25 24 -49 43 -54 43
-4 0 -19 12 -33 28 -34 34 -138 112 -151 112 -5 0 -11 3 -13 8 -11 26 -278
169 -443 237 -180 75 -436 143 -600 161 -27 3 -57 8 -65 11 -16 6 -485 14
-491 8z"/>
</g>
</svg>
