<?xml version="1.0" standalone="no"?>
<!DOCTYPE svg PUBLIC "-//W3C//DTD SVG 20010904//EN"
 "http://www.w3.org/TR/2001/REC-SVG-20010904/DTD/svg10.dtd">
<svg version="1.0" xmlns="http://www.w3.org/2000/svg"
 width="756.000000pt" height="756.000000pt" viewBox="0 0 756.000000 756.000000"
 preserveAspectRatio="xMidYMid meet">
<metadata>
Created by potrace 1.14, written by Peter Selinger 2001-2017
</metadata>
<g transform="translate(0.000000,756.000000) scale(0.100000,-0.100000)"
fill="#000000" stroke="none">
<path d="M3770 7480 c-8 -5 -25 -7 -37 -4 -15 4 -25 0 -33 -15 -7 -14 -7 -21
0 -21 5 0 10 -11 10 -24 0 -20 -4 -22 -26 -18 -17 3 -25 1 -21 -5 4 -6 -6 -13
-23 -15 -34 -5 -36 -1 -13 27 14 18 15 18 9 2 -4 -12 -2 -17 6 -15 6 2 13 9
15 15 5 13 -28 27 -36 16 -10 -15 -61 -33 -61 -23 0 6 5 10 11 10 5 0 7 5 3
11 -5 8 -9 8 -14 -1 -6 -9 -9 -9 -12 1 -3 8 -5 -1 -5 -19 0 -21 3 -28 9 -20 6
10 8 10 8 -1 0 -12 3 -12 12 -3 7 7 16 12 21 12 5 0 1 -7 -8 -16 -9 -9 -19
-14 -22 -10 -3 3 -12 1 -20 -6 -11 -9 -15 -7 -20 10 -9 37 -26 25 -19 -13 8
-38 -8 -49 -18 -12 -6 21 -7 21 -21 3 -9 -12 -22 -17 -35 -13 -15 4 -20 0 -21
-16 -1 -19 -2 -18 -9 5 -13 45 -22 54 -31 32 -14 -35 -10 -51 7 -29 15 20 15
19 12 -5 -3 -21 -8 -25 -38 -25 -19 0 -38 -4 -43 -10 -5 -6 -13 -3 -22 9 -8
11 -18 16 -22 12 -5 -4 1 -14 11 -22 11 -7 16 -17 12 -21 -4 -4 -11 -1 -16 7
-7 11 -11 12 -25 0 -9 -7 -13 -20 -10 -29 5 -12 4 -13 -6 -4 -9 9 -8 17 4 37
14 21 14 25 2 30 -10 3 -15 -1 -15 -12 0 -14 -2 -14 -9 -3 -6 10 -9 3 -8 -22
1 -41 -10 -58 -23 -37 -8 13 -10 13 -10 1 0 -8 -2 -12 -5 -10 -2 3 -2 15 2 28
4 16 8 19 14 10 4 -8 11 -10 15 -7 3 4 -1 14 -9 23 -14 14 -16 13 -22 -6 -6
-17 -9 -19 -17 -8 -7 10 -8 3 -5 -21 l6 -35 -14 30 c-8 17 -14 23 -15 14 0
-25 -31 -33 -37 -10 -3 12 -13 18 -29 17 -13 0 -24 -5 -24 -10 0 -4 9 -6 20
-3 12 3 18 1 14 -5 -4 -6 0 -14 7 -19 11 -7 11 -9 1 -9 -7 0 -11 -4 -7 -9 3
-5 0 -13 -6 -17 -9 -5 -10 0 -6 15 4 18 2 21 -15 15 -11 -3 -18 -2 -15 3 3 5
-3 9 -13 9 -17 0 -18 -2 -5 -16 20 -23 19 -36 -2 -19 -15 13 -16 12 -11 -9 6
-23 6 -23 -18 -7 -22 14 -24 14 -24 -1 0 -16 -1 -16 -19 0 -18 16 -18 16 -14
-9 4 -16 1 -25 -7 -25 -7 0 -10 7 -6 16 3 8 2 12 -4 9 -6 -3 -10 -13 -10 -21
0 -17 -1 -17 -37 -3 -23 8 -26 8 -15 -2 20 -21 14 -32 -14 -26 -21 4 -25 1
-21 -13 3 -12 0 -17 -9 -13 -7 3 -10 12 -6 21 5 15 3 15 -12 -1 -10 -10 -25
-16 -32 -13 -8 3 -14 1 -14 -4 0 -6 -9 -10 -20 -10 -11 0 -20 -7 -20 -15 0 -9
6 -12 18 -9 14 5 14 4 2 -4 -18 -13 -30 -6 -30 18 0 13 -7 18 -20 17 -11 -1
-20 -5 -20 -10 0 -5 7 -6 15 -3 18 6 17 -24 0 -36 -14 -11 -35 -10 -35 2 0 5
7 7 15 4 21 -8 19 -2 -7 20 -18 16 -20 16 -15 2 6 -14 3 -16 -16 -11 -21 6
-21 5 -4 -9 12 -9 15 -16 7 -21 -6 -4 -18 -1 -27 7 -14 11 -16 11 -11 -4 8
-20 -32 -34 -44 -15 -12 19 -9 -2 3 -25 9 -16 8 -19 -2 -13 -9 6 -11 3 -6 -8
3 -10 2 -17 -3 -17 -6 0 -10 9 -10 20 0 11 -5 20 -11 20 -7 0 -9 -10 -5 -25 7
-27 -11 -36 -20 -10 -4 8 -10 15 -16 15 -5 0 -7 -4 -3 -9 3 -5 1 -12 -5 -16
-5 -3 -10 -2 -10 4 0 6 -7 8 -15 5 -10 -4 -13 -13 -10 -25 8 -26 -16 -21 -32
6 -7 11 -12 14 -13 8 0 -7 -10 -13 -22 -14 -21 -1 -20 -2 5 -11 15 -5 25 -13
22 -18 -3 -4 5 -6 17 -3 16 4 20 2 13 -5 -5 -6 -19 -12 -30 -14 -15 -2 -19 2
-17 16 3 15 1 16 -11 5 -8 -8 -13 -19 -10 -25 5 -13 -44 -37 -52 -24 -10 16
-35 -1 -36 -24 -1 -14 -4 -10 -11 14 -5 19 -13 44 -17 54 -7 18 -8 18 -14 2
-4 -10 -3 -15 3 -11 6 4 10 -6 10 -23 0 -26 -6 -32 -45 -49 -25 -10 -48 -26
-51 -35 -3 -10 -10 -18 -15 -18 -13 0 -11 18 4 23 7 2 8 8 3 13 -5 5 -11 4
-13 -4 -3 -7 -11 -19 -19 -26 -8 -8 -12 -20 -9 -28 2 -7 -7 -21 -20 -31 -31
-22 -32 -15 -2 13 13 13 16 20 7 18 -22 -5 -40 -24 -41 -45 0 -16 -1 -16 -9 2
-6 14 -9 15 -10 5 -1 -10 -4 -9 -10 5 -8 18 -9 18 -10 -5 -2 -14 -2 -29 -1
-35 1 -5 -6 -1 -14 10 -15 19 -16 19 -13 -4 2 -14 -3 -26 -12 -28 -12 -4 -12
-3 -2 5 11 7 10 10 -3 16 -23 8 -22 9 -28 -13 -2 -11 0 -24 6 -30 8 -8 6 -11
-6 -11 -9 0 -17 6 -17 13 0 9 -3 8 -9 -2 -7 -11 -9 -11 -14 0 -4 11 -6 10 -6
-1 -1 -9 5 -22 12 -29 8 -9 8 -12 0 -7 -6 3 -14 0 -16 -6 -4 -10 -6 -10 -6 0
-1 6 -5 12 -11 12 -5 0 -7 -7 -4 -15 4 -9 0 -15 -9 -15 -9 0 -23 -7 -31 -16
-9 -9 -29 -19 -44 -24 -15 -4 -26 -12 -25 -18 1 -6 -12 -14 -30 -18 -17 -3
-39 -15 -48 -25 -18 -21 -34 -26 -23 -7 4 7 3 8 -4 4 -7 -4 -12 -14 -12 -23 0
-11 -6 -14 -24 -9 -15 4 -28 0 -36 -9 -10 -12 -9 -15 4 -15 9 0 16 -4 16 -10
0 -5 -6 -10 -14 -10 -8 0 -24 -12 -36 -27 -21 -27 -22 -27 -36 -9 -8 11 -14
14 -14 8 0 -7 -12 -12 -27 -13 -25 0 -26 -1 -8 -9 11 -5 14 -9 6 -9 -11 -1
-11 -4 -1 -16 10 -12 10 -15 -2 -15 -8 0 -18 3 -22 7 -11 11 -36 12 -36 1 0
-6 7 -7 16 -4 10 4 14 1 12 -6 -3 -7 -19 -17 -36 -23 -18 -5 -32 -16 -32 -24
0 -12 3 -12 12 -3 17 17 33 15 18 -3 -6 -8 -19 -14 -28 -13 -42 3 -55 -2 -43
-16 10 -12 7 -18 -16 -30 -22 -12 -24 -15 -9 -16 15 0 16 -3 6 -15 -7 -9 -21
-13 -31 -10 -11 4 -19 2 -19 -5 0 -6 4 -9 9 -6 5 3 11 0 14 -7 3 -8 -1 -14 -9
-14 -8 0 -17 12 -21 26 l-6 25 -9 -24 c-6 -16 -5 -26 4 -31 7 -4 10 -11 7 -14
-8 -8 -39 5 -39 16 0 5 -8 9 -17 9 -17 -1 -17 -1 -1 -11 9 -5 15 -16 12 -24
-4 -8 -10 -12 -15 -9 -5 3 -9 -2 -9 -10 0 -8 5 -18 10 -21 14 -9 12 -28 -2
-22 -7 2 -12 10 -10 16 1 6 -3 11 -9 11 -6 0 -8 9 -4 21 4 13 3 19 -3 15 -5
-3 -12 -19 -15 -36 -4 -19 -13 -30 -24 -31 -10 -1 -4 -5 12 -9 30 -8 30 -8 3
-9 -14 0 -28 -7 -31 -13 -3 -10 -9 -8 -24 5 -11 9 -24 17 -29 17 -5 0 -1 -5 9
-11 25 -15 21 -32 -5 -23 -20 6 -19 3 7 -21 17 -15 24 -24 17 -20 -8 4 -19 0
-26 -10 -12 -17 -13 -17 -20 0 -3 10 -4 20 -1 23 3 3 5 0 5 -7 0 -7 5 -9 11
-5 8 4 7 9 -2 15 -24 15 -31 10 -25 -16 5 -20 3 -23 -10 -18 -11 4 -14 13 -9
30 4 16 2 22 -5 18 -5 -3 -10 -15 -10 -25 0 -10 -4 -22 -10 -25 -5 -3 -10 -11
-10 -17 0 -7 5 -6 14 1 10 8 16 9 21 1 9 -14 -17 -38 -41 -37 -28 1 -70 -18
-56 -27 6 -3 13 -2 17 4 8 12 35 13 35 1 0 -5 -10 -11 -23 -14 -12 -3 -33 -9
-46 -13 -21 -6 -23 -4 -17 17 l6 24 -12 -23 c-16 -32 -1 -43 47 -32 42 10 51
8 40 -9 -3 -6 -17 -8 -31 -5 -14 4 -24 2 -24 -5 0 -6 5 -11 12 -11 6 0 9 -3 6
-6 -4 -3 -15 -1 -26 5 -24 13 -30 2 -27 -47 l2 -32 -23 21 c-13 12 -28 18 -36
14 -7 -3 -3 2 10 13 12 11 27 22 34 24 7 3 8 14 3 34 l-8 29 -6 -29 c-6 -28
-7 -29 -24 -12 -9 10 -17 14 -17 9 0 -5 5 -14 12 -21 6 -6 8 -15 4 -19 -4 -4
-11 -1 -17 7 -6 10 -8 4 -5 -22 4 -33 2 -38 -22 -47 -17 -6 -21 -10 -9 -10 9
-1 17 -5 17 -11 0 -13 -27 -13 -35 0 -4 6 -11 8 -16 4 -6 -4 -6 -10 1 -19 8
-9 7 -14 -4 -18 -8 -3 -17 -1 -20 6 -3 7 -4 3 -1 -9 3 -11 -1 -29 -9 -40 -14
-18 -15 -18 -21 -1 -8 18 -35 24 -35 7 0 -5 7 -10 15 -10 8 0 15 -4 15 -10 0
-15 -30 -12 -36 4 -6 16 -34 10 -34 -6 0 -6 6 -8 14 -5 8 3 17 1 19 -6 6 -18
-12 -49 -25 -41 -7 4 -6 10 3 16 11 8 11 9 -1 5 -8 -2 -23 2 -32 11 -22 19
-24 9 -2 -13 17 -16 12 -51 -6 -40 -20 12 -32 -7 -13 -21 15 -11 15 -13 3 -14
-9 0 -22 6 -29 13 -11 10 -12 8 -6 -10 5 -18 2 -23 -11 -23 -13 0 -14 -3 -4
-15 6 -8 9 -18 6 -24 -4 -5 2 -12 11 -14 13 -3 12 -5 -5 -6 -20 -1 -22 3 -17
22 l6 22 -14 -23 c-7 -12 -15 -20 -18 -18 -3 3 -6 -4 -6 -16 -1 -11 -8 -28
-16 -37 -12 -14 -60 -106 -63 -121 0 -3 -6 -18 -13 -34 -6 -16 -9 -31 -6 -34
3 -3 -1 -12 -9 -21 -30 -34 -132 -388 -171 -596 -21 -113 -45 -300 -45 -355 0
-10 -8 -21 -17 -23 -17 -4 -17 -5 0 -6 16 -1 26 -21 10 -21 -5 0 -8 -21 -8
-47 0 -44 -2 -48 -23 -45 -21 2 -22 1 -8 -14 9 -8 21 -12 27 -8 7 4 10 1 7 -7
-3 -8 -13 -13 -22 -11 -14 3 -16 -1 -11 -20 5 -18 4 -20 -4 -8 -9 13 -11 13
-11 -2 0 -27 19 -31 29 -6 l10 23 0 -23 c1 -23 -24 -41 -37 -27 -4 3 -8 20 -8
36 -3 53 -4 59 -15 59 -6 0 -8 -9 -4 -21 5 -14 2 -25 -6 -30 -20 -12 -16 -408
6 -594 54 -474 174 -880 382 -1295 199 -399 513 -810 838 -1101 618 -551 1333
-868 2165 -961 246 -27 680 -14 948 28 973 153 1851 678 2438 1459 414 549
666 1190 745 1895 17 150 17 610 0 760 -76 677 -304 1279 -686 1815 -353 494
-832 905 -1370 1173 -88 44 -121 56 -123 46 -2 -8 -8 -14 -13 -14 -6 0 -7 5
-4 10 3 6 -3 10 -14 10 -12 0 -21 4 -21 9 0 5 10 7 23 4 20 -4 20 -3 4 7 -15
9 -22 8 -36 -4 -10 -9 -24 -16 -32 -17 -8 0 -3 -4 9 -10 13 -5 28 -7 33 -3 5
3 9 0 9 -5 0 -6 -4 -11 -8 -11 -19 0 -119 33 -139 46 -13 8 -23 12 -23 9 0 -2
-37 9 -82 26 -156 56 -413 130 -560 159 -172 35 -368 62 -418 58 -20 -1 -40 1
-45 4 -6 3 -42 6 -81 5 -39 0 -76 3 -83 7 -6 4 -11 3 -11 -2 0 -12 -53 -10
-62 3 -5 6 -8 5 -8 -2 0 -7 -5 -13 -11 -13 -5 0 -7 5 -4 10 8 12 4 12 -15 0z
m-32 -56 c4 -33 -11 -24 -23 15 -5 17 -4 22 6 19 8 -3 15 -18 17 -34z m42 25
c0 -8 5 -8 15 1 9 7 15 8 15 2 0 -10 -23 -22 -41 -22 -5 0 -9 7 -9 15 0 8 5
15 10 15 6 0 10 -5 10 -11z m-340 -150 c0 -5 -4 -9 -10 -9 -5 0 -10 7 -10 16
0 8 5 12 10 9 6 -3 10 -10 10 -16z m-25 -19 c3 -5 1 -10 -4 -10 -6 0 -11 5
-11 10 0 6 2 10 4 10 3 0 8 -4 11 -10z m-35 -14 c0 -3 -4 -8 -10 -11 -5 -3
-10 -1 -10 4 0 6 5 11 10 11 6 0 10 -2 10 -4z m-260 -61 c-14 -17 -30 -20 -30
-6 0 5 8 12 18 14 9 3 19 5 21 6 2 0 -2 -6 -9 -14z m-93 -57 c-3 -8 -6 -5 -6
6 -1 11 2 17 5 13 3 -3 4 -12 1 -19z m-57 -8 c-8 -5 -19 -10 -25 -10 -5 0 -3
5 5 10 8 5 20 10 25 10 6 0 3 -5 -5 -10z m340 -56 c0 -8 -5 -12 -10 -9 -6 4
-8 11 -5 16 9 14 15 11 15 -7z m824 -10 c11 -28 7 -43 -15 -54 -15 -9 -24 -8
-35 1 -14 12 -19 51 -7 62 12 13 51 7 57 -9z m-1236 -66 c22 -22 14 -64 -14
-77 -29 -13 -49 -3 -59 30 -14 43 41 79 73 47z m-328 -29 c0 -4 -7 -6 -15 -3
-8 4 -15 10 -15 15 0 4 7 6 15 3 8 -4 15 -10 15 -15z m1274 -88 c23 -26 17
-60 -15 -84 -22 -15 -30 -17 -48 -8 -26 14 -37 55 -22 87 13 30 60 33 85 5z
m1125 -7 c27 -35 26 -59 -4 -89 -28 -29 -55 -32 -83 -7 -32 26 -37 63 -12 95
29 36 71 36 99 1z m-2407 -17 c14 -22 8 -56 -14 -77 -26 -24 -37 -25 -66 -4
-30 21 -30 68 1 89 23 17 66 12 79 -8z m946 -7 c47 -44 9 -130 -57 -130 -34 0
-71 39 -71 75 0 12 9 34 21 49 26 33 75 35 107 6z m626 -1 c-3 -5 -10 -7 -15
-3 -5 3 -7 10 -3 15 3 5 10 7 15 3 5 -3 7 -10 3 -15z m326 -19 c58 -58 -31
-149 -92 -93 -22 20 -23 70 -1 95 21 24 68 23 93 -2z m-2261 -41 c-22 -14 -33
-10 -19 6 7 8 17 12 22 9 6 -4 5 -10 -3 -15z m3019 5 c44 -31 20 -88 -35 -82
-23 2 -29 8 -31 34 -2 19 3 38 13 48 20 20 25 20 53 0z m-2137 -24 c12 -7 19
-21 19 -38 0 -33 -8 -45 -38 -61 -35 -19 -72 9 -72 52 0 18 5 38 12 45 15 15
53 16 79 2z m-191 -150 c0 -11 -4 -20 -9 -20 -14 0 -23 18 -16 30 10 17 25 11
25 -10z m-413 -16 c-3 -3 -12 -4 -19 -1 -8 3 -5 6 6 6 11 1 17 -2 13 -5z m173
-34 c0 -5 -4 -10 -10 -10 -5 0 -10 5 -10 10 0 6 5 10 10 10 6 0 10 -4 10 -10z
m2319 -31 c53 -19 77 -88 43 -125 -46 -50 -87 -55 -131 -18 -59 49 -34 119 55
154 1 0 15 -5 33 -11z m-3009 -92 c5 -12 12 -48 15 -79 6 -57 7 -57 43 -64
111 -18 139 -36 128 -78 -7 -27 -37 -40 -118 -51 l-46 -6 -7 -62 c-10 -81 -28
-117 -61 -117 -30 0 -50 41 -60 123 l-6 55 -52 6 c-84 11 -115 25 -123 53 -9
37 20 57 105 72 l69 12 6 57 c8 95 35 132 80 110 10 -5 22 -19 27 -31z m1266
-8 c15 -30 15 -33 -4 -58 -26 -35 -74 -40 -96 -9 -33 47 -8 98 50 98 27 0 36
-6 50 -31z m-493 -23 c48 -20 87 -70 87 -113 0 -45 -32 -98 -68 -111 -57 -21
-65 -22 -107 -3 -109 48 -95 204 20 234 32 8 34 8 68 -7z m926 -5 c6 -10 14
-44 17 -76 8 -68 20 -82 82 -91 67 -9 102 -29 102 -58 0 -33 -19 -45 -92 -57
-34 -6 -66 -13 -70 -17 -4 -5 -11 -30 -14 -57 -7 -56 -24 -89 -54 -105 -17 -9
-23 -6 -39 21 -11 18 -22 53 -26 80 -4 26 -12 52 -19 58 -6 5 -40 14 -75 20
-71 12 -91 24 -91 56 0 32 18 44 86 56 84 16 91 21 99 81 10 73 30 108 60 108
14 0 29 -8 34 -19z m-2079 -11 c8 -5 11 -10 5 -10 -5 0 -17 5 -25 10 -8 5 -10
10 -5 10 6 0 17 -5 25 -10z m-107 -95 c-5 -13 -23 -22 -23 -11 0 15 14 35 21
31 4 -3 6 -12 2 -20z m-48 -45 c3 -5 -1 -10 -9 -10 -9 0 -16 5 -16 10 0 6 4
10 9 10 6 0 13 -4 16 -10z m1585 0 c0 -5 -5 -10 -11 -10 -5 0 -7 5 -4 10 3 6
8 10 11 10 2 0 4 -4 4 -10z m2221 -75 c14 -23 32 -38 52 -43 45 -12 43 -43 -2
-58 -23 -7 -39 -22 -50 -44 -23 -48 -39 -49 -57 -3 -13 33 -22 42 -52 49 -50
12 -51 44 -3 58 22 6 41 21 53 43 11 18 24 33 29 33 5 0 19 -16 30 -35z m723
3 c8 -13 19 -54 25 -92 5 -38 16 -73 23 -77 7 -4 31 -11 53 -14 105 -16 125
-27 125 -71 0 -28 -30 -44 -125 -65 l-59 -14 -17 -73 c-17 -75 -40 -112 -69
-112 -28 0 -49 33 -65 105 -9 39 -23 75 -32 82 -8 6 -41 15 -72 19 -84 10
-111 27 -111 72 0 27 20 37 113 56 38 8 73 18 78 23 5 5 14 38 20 74 14 83 31
109 69 109 20 0 34 -7 44 -22z m-3589 -83 c0 -13 -8 -21 -22 -23 -19 -3 -23 1
-23 23 0 22 4 26 23 23 14 -2 22 -10 22 -23z m-1175 -54 c0 -6 -4 -13 -10 -16
-5 -3 -10 1 -10 9 0 9 5 16 10 16 6 0 10 -4 10 -9z m21 -18 c-12 -20 -14 -14
-5 12 4 9 9 14 11 11 3 -2 0 -13 -6 -23z m264 -93 c8 -16 29 -37 45 -45 38
-20 38 -34 0 -48 -17 -6 -32 -19 -35 -28 -3 -9 -14 -24 -25 -34 -19 -17 -20
-16 -40 18 -12 20 -34 40 -51 46 -38 13 -37 35 1 51 17 7 38 26 46 41 19 37
39 37 59 -1z m-390 -10 c-3 -5 -12 -7 -20 -3 -21 7 -19 13 6 13 11 0 18 -4 14
-10z m3283 -10 c27 -26 28 -54 2 -80 -27 -27 -65 -26 -84 2 -21 30 -20 54 4
78 26 26 50 25 78 0z m-291 -46 c7 -19 -20 -49 -36 -40 -6 4 -11 18 -11 32 0
17 5 24 20 24 11 0 23 -7 27 -16z m-3053 -10 c3 -8 2 -12 -4 -9 -6 3 -10 10
-10 16 0 14 7 11 14 -7z m3924 -56 c-3 -7 -11 -13 -18 -13 -7 0 -15 6 -17 13
-3 7 4 12 17 12 13 0 20 -5 18 -12z m445 -2 c8 -21 -17 -50 -37 -43 -16 6 -22
38 -9 50 11 12 41 7 46 -7z m1092 -12 c10 -10 14 -25 11 -38 -3 -12 -6 -24 -6
-28 0 -3 -14 -11 -30 -17 -26 -9 -34 -7 -50 9 -22 22 -26 60 -8 78 17 17 64
15 83 -4z m-4076 -31 c-12 -15 -12 -16 4 -10 11 4 16 3 12 -4 -4 -5 -1 -17 7
-26 12 -15 11 -15 -9 -5 -12 7 -23 17 -26 24 -4 14 14 50 22 43 2 -3 -2 -12
-10 -22z m54 -37 c-3 -4 -9 -2 -14 5 -13 22 -11 31 5 17 8 -7 12 -17 9 -22z
m-1599 -21 c-7 -16 -24 -21 -24 -6 0 8 7 13 27 20 1 1 0 -6 -3 -14z m-90 -59
c-10 -8 -21 -12 -23 -10 -3 2 4 11 15 18 10 8 21 12 23 10 3 -2 -4 -11 -15
-18z m486 -2 c0 -8 -5 -12 -10 -9 -6 4 -8 11 -5 16 9 14 15 11 15 -7z m-550
-55 c0 -5 -8 -9 -17 -8 -11 0 -13 3 -5 6 6 2 9 10 6 15 -4 7 -2 8 4 4 7 -4 12
-11 12 -17z m4492 -38 c266 -46 516 -164 622 -294 63 -79 80 -124 81 -212 0
-97 -28 -166 -96 -234 -62 -62 -118 -85 -204 -86 -91 0 -139 23 -232 113 -122
117 -222 155 -408 156 -86 0 -125 -4 -180 -21 -130 -41 -224 -131 -260 -249
-56 -185 46 -347 288 -459 42 -19 203 -78 359 -130 392 -132 496 -184 625
-317 168 -173 252 -398 240 -648 -7 -144 -32 -244 -97 -376 -138 -283 -360
-444 -715 -519 -109 -23 -345 -31 -475 -16 -371 44 -716 222 -808 418 -23 49
-27 71 -27 143 0 73 4 93 28 142 53 107 153 172 267 172 93 0 146 -27 242
-124 59 -60 96 -88 151 -114 128 -61 176 -71 337 -71 134 1 150 3 214 28 308
121 352 436 86 611 -80 53 -160 86 -405 166 -238 78 -388 138 -489 198 -265
158 -422 399 -457 704 -29 248 45 496 207 692 134 163 378 293 622 330 133 21
349 20 484 -3z m-4238 -10 c21 -23 18 -49 -6 -65 -40 -25 -80 44 -42 71 23 17
28 17 48 -6z m3094 -3 c28 -28 2 -88 -38 -88 -40 0 -66 60 -38 88 7 7 24 12
38 12 14 0 31 -5 38 -12z m-3438 -28 c0 -5 -4 -10 -10 -10 -5 0 -10 5 -10 10
0 6 5 10 10 10 6 0 10 -4 10 -10z m2777 -24 c168 -77 245 -263 168 -405 -37
-67 -90 -113 -156 -134 -45 -15 -119 -17 -625 -17 l-574 0 0 -314 c0 -172 3
-333 6 -357 l6 -44 531 3 c311 1 552 -2 583 -7 119 -22 216 -98 253 -196 43
-114 16 -222 -79 -316 -47 -47 -68 -61 -124 -78 -66 -20 -88 -21 -622 -21
l-554 0 0 -324 c0 -178 3 -338 6 -355 l7 -31 566 0 c644 0 634 1 719 -75 69
-62 96 -127 90 -216 -9 -117 -79 -212 -197 -268 l-56 -26 -645 -3 c-454 -2
-663 0 -705 8 -189 36 -340 186 -380 377 -12 57 -15 260 -15 1239 0 738 4
1191 10 1225 14 75 70 185 122 239 48 50 127 96 197 116 36 10 199 12 726 11
l680 -2 62 -29z m3141 -17 c25 -13 54 -37 69 -60 22 -33 25 -47 21 -94 -6 -68
-29 -102 -89 -133 -130 -68 -274 73 -215 211 15 36 37 58 81 81 41 22 81 20
133 -5z m-5945 4 c-7 -2 -19 -2 -25 0 -7 3 -2 5 12 5 14 0 19 -2 13 -5z m-66
-39 c-3 -3 -12 -4 -19 -1 -8 3 -5 6 6 6 11 1 17 -2 13 -5z m891 -86 c2 -19 -2
-28 -17 -33 -27 -8 -41 1 -41 29 0 29 9 38 35 34 13 -2 21 -12 23 -30z m-294
6 c39 -39 11 -114 -43 -114 -32 0 -44 8 -60 37 -16 32 -14 50 11 73 26 24 70
26 92 4z m-279 -133 c3 -5 1 -12 -5 -16 -5 -3 -10 1 -10 9 0 18 6 21 15 7z
m458 -283 c17 -21 23 -74 9 -95 -4 -7 -25 -19 -46 -28 -35 -15 -40 -15 -62 0
-37 24 -47 59 -29 101 23 55 89 66 128 22z m-464 -66 c38 -20 71 -73 71 -112
0 -62 -66 -120 -136 -120 -29 0 -44 8 -76 40 -39 38 -40 43 -36 90 6 55 26 85
73 106 41 18 64 17 104 -4z m6045 -71 c24 -26 17 -62 -16 -80 -24 -14 -28 -14
-47 3 -26 23 -28 71 -3 85 26 16 47 13 66 -8z m-3154 -240 c0 -11 -5 -23 -11
-27 -15 -9 -33 12 -26 30 9 23 37 20 37 -3z m-2642 -13 c16 -16 15 -33 -4 -52
-21 -22 -41 -20 -54 4 -22 40 26 80 58 48z m-564 -94 c19 -18 19 -20 6 -45
-18 -33 -70 -18 -70 21 0 19 19 40 36 40 7 0 20 -7 28 -16z m845 -58 c16 -20
3 -46 -24 -46 -13 0 -26 7 -29 16 -7 19 10 44 29 44 7 0 18 -6 24 -14z m-659
-15 c18 -34 -10 -68 -44 -55 -35 13 -23 74 14 74 11 0 24 -9 30 -19z m260 -31
c19 -10 34 -47 45 -112 8 -51 28 -68 79 -68 63 0 105 -17 112 -47 10 -38 -15
-54 -91 -62 -75 -8 -91 -21 -100 -80 -4 -20 -8 -46 -11 -58 -4 -23 -30 -53
-45 -53 -22 0 -47 41 -58 97 -6 34 -18 66 -26 73 -8 6 -44 16 -81 20 -76 10
-100 26 -90 63 7 28 18 33 102 47 32 5 64 15 71 22 7 8 17 38 23 68 9 49 33
100 46 100 3 0 14 -4 24 -10z m5226 -66 c-3 -9 -1 -12 4 -9 16 10 12 -7 -7
-27 -21 -24 -28 -23 -48 8 -16 24 -16 27 0 45 14 14 22 16 37 8 11 -6 17 -17
14 -25z m901 -300 c3 -8 -1 -22 -9 -30 -13 -14 -17 -14 -31 1 -9 8 -14 22 -11
30 8 20 43 19 51 -1z m-7013 -94 c3 -3 -5 -6 -19 -5 -13 0 -26 2 -29 5 -3 3 5
6 19 5 13 0 26 -2 29 -5z m5971 -40 c4 -6 -1 -7 -12 -4 -17 5 -17 5 0 -9 12
-10 15 -17 7 -22 -6 -4 -17 -1 -26 5 -11 10 -12 16 -3 26 13 16 25 18 34 4z
m-2180 -180 c18 -20 18 -21 -2 -41 -18 -18 -23 -19 -42 -8 -25 17 -26 27 -4
51 20 23 26 23 48 -2z m2869 -29 c9 -10 23 -53 31 -97 9 -43 19 -82 23 -86 5
-5 40 -14 78 -22 81 -15 110 -29 119 -56 14 -45 -25 -71 -126 -85 -26 -3 -54
-11 -62 -18 -9 -7 -23 -45 -32 -87 -18 -84 -36 -110 -76 -110 -37 0 -55 27
-73 115 -8 40 -22 74 -31 81 -10 7 -43 16 -74 20 -80 9 -119 27 -127 59 -10
42 19 63 111 80 44 9 85 21 92 28 7 7 19 46 28 87 9 41 23 82 32 92 21 23 65
23 87 -1z m-5890 -213 c8 -13 17 -43 21 -68 10 -60 17 -67 78 -75 56 -8 87
-28 87 -56 0 -24 -23 -36 -92 -44 -58 -7 -58 -7 -68 -49 -19 -71 -32 -96 -51
-96 -21 0 -38 27 -54 90 l-11 45 -67 11 c-68 11 -97 26 -97 50 0 20 39 42 90
50 67 10 77 18 85 71 7 54 28 93 50 93 8 0 21 -10 29 -22z m2983 -163 c32 -22
35 -64 7 -92 -29 -29 -57 -29 -84 -1 -27 29 -26 73 2 92 28 20 48 20 75 1z
m-2442 -72 c-1 -17 3 -29 8 -26 4 3 6 12 2 22 -5 12 -3 13 6 4 15 -15 3 -47
-16 -39 -8 3 -17 1 -20 -4 -11 -17 -45 9 -44 33 l0 22 9 -22 c11 -27 28 -30
37 -7 4 10 -1 20 -11 26 -20 11 -11 30 12 26 12 -2 17 -13 17 -35z m5565 -193
c35 -35 20 -84 -32 -103 -25 -9 -68 29 -68 60 0 57 61 82 100 43z m-540 -90
c22 -22 19 -40 -11 -58 -23 -14 -43 -7 -35 14 3 7 0 16 -6 20 -7 4 -8 3 -4 -4
4 -7 2 -12 -3 -12 -15 0 -14 33 1 48 17 17 35 15 58 -8z m-5723 -139 c-17 -20
-33 -38 -34 -40 -2 -2 -20 14 -41 35 l-38 39 35 37 36 37 37 -37 38 -36 -33
-35z m288 -31 c-3 -5 -16 -15 -28 -21 -21 -10 -21 -9 2 10 25 23 36 27 26 11z
m5637 -88 c14 -9 34 -33 44 -54 31 -69 -9 -143 -88 -162 -84 -20 -169 84 -135
167 30 70 106 91 179 49z m-592 -304 c0 -10 -16 5 -40 37 -10 15 -7 14 13 -4
15 -14 27 -29 27 -33z m-103 21 c-9 -6 -17 -18 -18 -27 0 -11 -2 -13 -6 -4 -6
14 27 56 36 46 3 -3 -2 -10 -12 -15z m58 1 c3 -5 1 -10 -4 -10 -6 0 -11 5 -11
10 0 6 2 10 4 10 3 0 8 -4 11 -10z m-1996 -56 c26 -33 26 -42 -1 -71 -25 -27
-45 -29 -76 -7 -42 29 -18 104 34 104 12 0 32 -12 43 -26z m1971 6 c0 -5 -2
-10 -4 -10 -3 0 -8 5 -11 10 -3 6 -1 10 4 10 6 0 11 -4 11 -10z m30 -10 c0 -5
-5 -10 -11 -10 -5 0 -7 5 -4 10 3 6 8 10 11 10 2 0 4 -4 4 -10z m-33 -27 c0
-10 -4 -10 -16 -1 -9 7 -18 13 -20 15 -2 1 5 1 16 0 11 0 20 -7 20 -14z
m-4290 -128 c23 -16 35 -48 53 -137 6 -32 15 -60 19 -62 4 -3 47 -12 96 -20
67 -12 94 -21 108 -37 9 -12 17 -25 17 -29 0 -4 -8 -17 -17 -29 -13 -16 -41
-26 -104 -37 -47 -9 -92 -19 -98 -24 -7 -4 -19 -40 -27 -80 -17 -91 -35 -120
-74 -120 -36 0 -55 26 -70 95 -5 28 -13 60 -15 73 -7 27 -47 46 -120 57 -83
12 -123 42 -108 80 9 24 51 41 131 55 40 6 78 18 85 24 7 7 18 47 25 89 11 62
18 80 39 97 31 24 33 24 60 5z m4711 -104 c31 -16 27 -40 -9 -53 -21 -7 -36
-22 -45 -44 -18 -44 -36 -43 -57 2 -11 22 -28 39 -47 46 -39 13 -38 35 1 52
16 7 39 28 51 47 l20 34 32 -37 c17 -20 41 -41 54 -47z m-5223 29 c3 -5 -1
-10 -9 -10 -9 0 -16 5 -16 10 0 6 4 10 9 10 6 0 13 -4 16 -10z m-33 -32 c-9
-9 -12 -7 -12 12 0 19 3 21 12 12 9 -9 9 -15 0 -24z m2053 -78 c18 -20 18 -21
0 -14 -11 4 -16 3 -12 -2 3 -6 -10 -9 -31 -7 -20 1 -28 0 -17 -3 11 -3 27 -8
35 -11 8 -3 20 -5 25 -4 6 1 2 -5 -7 -12 -10 -8 -15 -17 -11 -21 3 -3 15 1 25
11 17 15 18 15 18 -2 0 -21 -37 -65 -56 -65 -6 0 -18 7 -25 16 -12 15 -11 16
8 10 25 -8 63 8 63 26 0 9 -3 9 -12 0 -9 -9 -15 -9 -26 0 -10 9 -15 9 -21 -1
-6 -9 -15 -9 -36 -1 -25 10 -27 9 -22 -10 4 -17 3 -19 -9 -9 -21 17 -17 69 8
96 28 29 78 31 103 3z m1299 -52 c8 -14 6 -22 -10 -39 -18 -17 -25 -19 -43
-10 -11 7 -21 20 -21 29 0 41 52 55 74 20z m1057 -94 c64 -33 95 -126 66 -195
-53 -128 -243 -124 -292 5 -23 60 -14 106 32 157 53 59 122 71 194 33z m-654
-26 c-3 -8 -6 -5 -6 6 -1 11 2 17 5 13 3 -3 4 -12 1 -19z m-1576 -164 c88 -84
33 -224 -88 -224 -98 0 -162 105 -118 191 38 73 146 91 206 33z m1531 -121
c28 -32 30 -58 7 -86 -39 -51 -109 -24 -109 42 0 53 68 82 102 44z m-1304 -11
c2 -7 -3 -12 -12 -12 -9 0 -16 7 -16 16 0 17 22 14 28 -4z m897 -82 c17 -19
17 -22 3 -37 -30 -29 -74 10 -48 42 16 20 23 19 45 -5z m-1616 -24 c9 -10 8
-16 -4 -26 -19 -15 -47 3 -38 26 7 18 27 18 42 0z m-979 -61 c4 2 16 -5 26
-16 17 -19 17 -20 -6 -42 -20 -18 -21 -18 -8 -2 17 20 16 20 -22 20 -30 0 -36
-2 -28 -12 7 -9 7 -13 0 -13 -17 0 -23 32 -10 49 19 24 33 32 36 21 2 -6 7 -8
12 -5z m2248 -108 c3 -12 -3 -17 -22 -17 -25 0 -35 18 -19 34 12 12 38 2 41
-17z m-1162 -108 c106 -99 45 -269 -97 -269 -70 0 -149 79 -149 149 0 43 35
105 76 132 42 29 133 22 170 -12z m1524 -34 c102 -53 60 -215 -55 -215 -38 0
-83 26 -100 60 -53 103 52 208 155 155z m-1996 -206 c28 -33 26 -48 -13 -83
-19 -17 -22 -18 -45 -2 -44 28 -49 51 -20 85 14 17 32 31 39 31 7 0 25 -14 39
-31z m745 -248 c13 -24 -9 -57 -33 -48 -23 9 -31 34 -16 52 17 20 37 19 49 -4z"/>
<path d="M1368 3223 c7 -3 16 -2 19 1 4 3 -2 6 -13 5 -11 0 -14 -3 -6 -6z"/>
<path d="M3120 1925 c-15 -8 -19 -14 -10 -14 18 -1 46 16 40 23 -3 2 -16 -2
-30 -9z"/>
<path d="M1820 1320 c-9 -6 -10 -10 -3 -10 6 0 15 5 18 10 8 12 4 12 -15 0z"/>
<path d="M3670 7469 c0 -5 5 -7 10 -4 6 3 10 8 10 11 0 2 -4 4 -10 4 -5 0 -10
-5 -10 -11z"/>
<path d="M3635 7459 c-4 -6 -5 -12 -2 -15 2 -3 7 2 10 11 7 17 1 20 -8 4z"/>
<path d="M3560 7456 c0 -2 7 -7 16 -10 8 -3 12 -2 9 4 -6 10 -25 14 -25 6z"/>
<path d="M3600 7450 c0 -5 5 -10 11 -10 5 0 7 5 4 10 -3 6 -8 10 -11 10 -2 0
-4 -4 -4 -10z"/>
<path d="M3658 7443 c7 -3 16 -2 19 1 4 3 -2 6 -13 5 -11 0 -14 -3 -6 -6z"/>
<path d="M3675 7420 c3 -5 10 -10 16 -10 5 0 9 5 9 10 0 6 -7 10 -16 10 -8 0
-12 -4 -9 -10z"/>
<path d="M3446 7375 c-9 -26 -7 -32 5 -12 6 10 9 21 6 23 -2 3 -7 -2 -11 -11z"/>
<path d="M3325 7320 c3 -5 8 -10 11 -10 2 0 4 5 4 10 0 6 -5 10 -11 10 -5 0
-7 -4 -4 -10z"/>
<path d="M2757 7163 c-4 -3 -7 -11 -7 -17 0 -6 5 -5 12 2 6 6 9 14 7 17 -3 3
-9 2 -12 -2z"/>
<path d="M2871 7154 c0 -11 3 -14 6 -6 3 7 2 16 -1 19 -3 4 -6 -2 -5 -13z"/>
<path d="M2645 7129 c-4 -6 -5 -12 -2 -15 2 -3 7 2 10 11 7 17 1 20 -8 4z"/>
<path d="M2528 7033 c7 -3 16 -2 19 1 4 3 -2 6 -13 5 -11 0 -14 -3 -6 -6z"/>
<path d="M2238 6883 c7 -3 16 -2 19 1 4 3 -2 6 -13 5 -11 0 -14 -3 -6 -6z"/>
<path d="M2270 6880 c0 -12 28 -25 36 -17 3 3 -4 10 -15 17 -15 7 -21 7 -21 0z"/>
<path d="M2040 6770 c0 -5 7 -7 15 -4 8 4 15 8 15 10 0 2 -7 4 -15 4 -8 0 -15
-4 -15 -10z"/>
<path d="M1470 6378 c0 -15 23 -20 36 -7 11 12 9 14 -11 14 -14 0 -25 -3 -25
-7z"/>
<path d="M1330 6279 c0 -5 5 -7 10 -4 6 3 10 8 10 11 0 2 -4 4 -10 4 -5 0 -10
-5 -10 -11z"/>
<path d="M1245 6200 c3 -5 8 -10 11 -10 2 0 4 5 4 10 0 6 -5 10 -11 10 -5 0
-7 -4 -4 -10z"/>
<path d="M1210 6170 c0 -5 7 -10 16 -10 8 0 12 5 9 10 -3 6 -10 10 -16 10 -5
0 -9 -4 -9 -10z"/>
<path d="M1058 6073 c7 -3 16 -2 19 1 4 3 -2 6 -13 5 -11 0 -14 -3 -6 -6z"/>
<path d="M1050 6035 c0 -8 2 -15 4 -15 2 0 6 7 10 15 3 8 1 15 -4 15 -6 0 -10
-7 -10 -15z"/>
<path d="M905 5930 c-3 -6 1 -7 9 -4 18 7 21 14 7 14 -6 0 -13 -4 -16 -10z"/>
<path d="M890 5900 c19 -13 30 -13 30 0 0 6 -10 10 -22 10 -19 0 -20 -2 -8
-10z"/>
<path d="M850 5860 c20 -13 33 -13 25 0 -3 6 -14 10 -23 10 -15 0 -15 -2 -2
-10z"/>
<path d="M800 5720 c0 -5 5 -10 10 -10 6 0 10 5 10 10 0 6 -4 10 -10 10 -5 0
-10 -4 -10 -10z"/>
<path d="M631 5693 c0 -4 4 -17 9 -28 8 -19 9 -19 9 2 1 12 -3 25 -9 28 -5 3
-10 3 -9 -2z"/>
<path d="M660 5691 c0 -6 4 -13 10 -16 6 -3 7 1 4 9 -7 18 -14 21 -14 7z"/>
<path d="M688 5693 c7 -3 16 -2 19 1 4 3 -2 6 -13 5 -11 0 -14 -3 -6 -6z"/>
<path d="M610 5620 c0 -5 7 -7 15 -4 8 4 15 1 15 -5 0 -6 4 -11 10 -11 5 0 7
7 4 15 -7 16 -44 21 -44 5z"/>
<path d="M91 4174 c0 -11 3 -14 6 -6 3 7 2 16 -1 19 -3 4 -6 -2 -5 -13z"/>
<path d="M25 4070 c3 -5 8 -10 11 -10 2 0 4 5 4 10 0 6 -5 10 -11 10 -5 0 -7
-4 -4 -10z"/>
</g>
</svg>
